<svg width="64" height="64" viewBox="0 0 64 64" fill="none" xmlns="http://www.w3.org/2000/svg">
<path d="M32 6C17.641 6 6 17.641 6 32C6 44.277 14.512 54.56 25.955 57.286C25.363 57.145 24.776 56.987 24.2 56.807V50.85C24.2 50.85 23.225 51.175 21.925 51.175C18.288 51.175 16.777 47.93 16.4 46.3C16.171 45.307 15.573 44.366 14.931 43.791C14.164 43.107 13.805 43.105 13.8 42.871C13.79 42.38 14.458 42.4 14.775 42.4C16.4 42.4 17.632 44.129 18.204 45.023C19.621 47.23 21.142 47.6 21.925 47.6C22.9 47.6 23.742 47.454 24.322 47.174C24.59 45.286 25.43 43.604 26.8 42.4C20.703 41.181 16.4 37.684 16.4 32C16.4 29.072 17.575 26.381 19.533 24.208C19.333 23.641 19 22.494 19 20.625C19 19.39 19.086 17.874 19.65 16.4C19.65 16.4 23.358 16.426 26.855 19.738C28.469 19.268 30.196 19 32 19C33.804 19 35.531 19.268 37.145 19.738C40.642 16.426 44.35 16.4 44.35 16.4C44.917 17.874 45 19.39 45 20.625C45 22.64 44.732 23.815 44.568 24.322C46.466 26.475 47.6 29.124 47.6 32C47.6 37.684 43.297 41.181 37.2 42.4C38.828 43.83 39.8 45.913 39.8 48.25V56.807C39.224 56.988 38.638 57.145 38.045 57.286C49.488 54.56 58 44.277 58 32C58 17.641 46.359 6 32 6ZM33.813 57.93C33.214 57.972 32.61 58 32 58C32.61 58 33.213 57.971 33.813 57.93ZM37.786 57.346C36.622 57.611 35.429 57.797 34.211 57.9C35.429 57.797 36.622 57.61 37.786 57.346ZM32 58C31.39 58 30.786 57.972 30.187 57.93C30.787 57.971 31.39 58 32 58ZM29.788 57.9C28.571 57.797 27.377 57.611 26.214 57.346C27.378 57.61 28.571 57.797 29.788 57.9Z" fill="white"/>
</svg>
