<svg width="512" height="512" viewBox="0 0 512 512" fill="none" xmlns="http://www.w3.org/2000/svg">
<g clip-path="url(#clip0_638_91)">
<path d="M154.078 61.652C152.738 36.584 132.432 16.946 107.853 16.946C95.206 16.946 84.611 23.4 77.233 29.772C69.943 23.374 59.367 16.946 46.3 16.946C21.721 16.946 1.41701 36.583 0.076014 61.654C-0.728986 76.715 5.02701 87.335 9.42901 94.013C15.293 102.91 29.371 116.001 40.589 125.284C66.193 146.469 73.584 146.469 77.137 146.469C80.729 146.469 88.204 146.469 113.685 125.315C124.818 116.07 138.823 102.989 144.737 93.997C149.133 87.307 154.884 76.676 154.078 61.652ZM122.226 79.202C115.475 89.468 87.705 113.005 77.176 118.761C66.66 112.936 38.441 89.081 31.921 79.19C28.105 73.4 26.674 68.736 26.973 63.092C27.54 52.501 36.209 43.884 46.299 43.884C54.928 43.884 63.557 53.71 65.858 57.09C68.317 60.797 72.448 63.049 76.896 63.109C76.957 63.11 77.019 63.11 77.079 63.11C81.459 63.11 85.57 60.979 88.094 57.393C91.072 53.161 100.182 43.885 107.853 43.885C117.942 43.885 126.614 52.501 127.181 63.094C127.481 68.723 126.046 73.391 122.226 79.202Z" fill="white"/>
<path d="M275.191 478.943C275.016 478.084 274.76 477.235 274.423 476.427C274.086 475.617 273.669 474.836 273.184 474.097C272.699 473.37 272.133 472.669 271.514 472.05C270.894 471.43 270.195 470.878 269.467 470.38C268.726 469.895 267.945 469.478 267.137 469.141C266.329 468.804 265.482 468.548 264.618 468.373C260.241 467.498 255.595 468.925 252.457 472.05C251.837 472.67 251.272 473.369 250.787 474.097C250.302 474.838 249.885 475.619 249.548 476.427C249.211 477.235 248.955 478.082 248.78 478.944C248.605 479.819 248.525 480.696 248.525 481.584C248.525 482.459 248.606 483.35 248.78 484.21C248.955 485.073 249.211 485.922 249.548 486.729C249.885 487.539 250.302 488.318 250.787 489.059C251.272 489.786 251.838 490.487 252.457 491.106C253.076 491.725 253.776 492.291 254.504 492.776C255.245 493.261 256.026 493.678 256.834 494.015C257.642 494.352 258.489 494.608 259.353 494.783C260.227 494.958 261.104 495.051 261.978 495.051C265.535 495.051 269.01 493.611 271.514 491.105C272.134 490.485 272.699 489.786 273.184 489.058C273.669 488.316 274.086 487.536 274.423 486.728C274.76 485.92 275.016 485.073 275.191 484.209C275.366 483.347 275.446 482.458 275.446 481.583C275.446 480.696 275.365 479.819 275.191 478.943Z" fill="white"/>
<path d="M336.706 478.945C336.528 478.084 336.272 477.236 335.936 476.428C335.599 475.618 335.182 474.837 334.697 474.098C334.199 473.371 333.633 472.67 333.013 472.051C329.888 468.926 325.228 467.484 320.864 468.374C320.001 468.549 319.152 468.805 318.345 469.142C317.523 469.479 316.742 469.896 316.015 470.381C315.274 470.879 314.587 471.432 313.968 472.051C313.348 472.671 312.783 473.37 312.298 474.098C311.813 474.839 311.396 475.62 311.059 476.428C310.722 477.236 310.466 478.083 310.291 478.945C310.116 479.82 310.022 480.697 310.022 481.585C310.022 485.129 311.463 488.589 313.97 491.107C314.59 491.727 315.277 492.292 316.017 492.777C316.744 493.262 317.525 493.679 318.347 494.016C319.155 494.353 320.002 494.609 320.866 494.784C321.728 494.959 322.617 495.052 323.491 495.052C324.38 495.052 325.257 494.959 326.131 494.784C326.981 494.609 327.829 494.353 328.65 494.016C329.459 493.679 330.241 493.262 330.968 492.777C331.709 492.292 332.396 491.726 333.015 491.107C335.52 488.588 336.961 485.128 336.961 481.585C336.96 480.697 336.879 479.82 336.706 478.945Z" fill="white"/>
<path d="M510.603 263.008C508.331 258.417 503.653 255.51 498.53 255.51C402.922 255.51 373.848 208.948 345.732 163.919C322.124 126.109 297.71 87.011 236.67 87.011C208.254 87.011 183.339 99.552 164.621 123.274C149.773 142.093 139.394 167.096 134.433 195.88L112.072 210.367C105.859 214.39 102.364 220.769 102.721 227.429C103.079 234.089 107.238 240.057 113.845 243.392L132.699 252.909C132.919 254.913 133.166 256.897 133.441 258.851C144.803 339.604 186.74 397.15 248.517 416.806V441.389C248.517 448.826 254.548 454.858 261.986 454.858C269.423 454.858 275.455 448.827 275.455 441.389V422.737C282.37 423.611 288.796 423.948 294.555 423.948C300.481 423.948 305.691 423.595 310.025 423.128V441.39C310.025 448.828 316.056 454.859 323.494 454.859C330.931 454.859 336.963 448.828 336.963 441.39V417.385C421.612 390.834 505.509 282.03 509.234 277.152C512.343 273.082 512.873 267.599 510.603 263.008ZM317.308 394.673C317.105 394.711 316.823 394.773 316.621 394.821C313.809 395.492 288.249 401.103 256.964 391.234C205.294 374.931 169.993 325.312 160.114 255.102C159.578 251.274 159.156 247.295 158.865 243.279C158.523 238.557 155.728 234.361 151.502 232.228L138.222 225.523L154.125 215.221C157.393 213.105 159.584 209.679 160.135 205.824C166.49 161.408 189.932 113.948 236.67 113.948C282.772 113.948 300.473 142.296 322.884 178.185C349.331 220.542 381.671 272.343 470.986 281.144C441.021 315.691 376.088 383.183 317.308 394.673Z" fill="white"/>
<path d="M388.404 267.708C385.128 263.646 379.806 261.84 374.739 263.075C339.77 271.571 326.557 259.549 311.251 245.623C298.035 233.598 281.591 218.637 252.85 225.62C227.491 231.783 212.836 256.119 215.516 287.614C215.548 288.006 215.601 288.397 215.667 288.784C216.109 291.323 218.458 304.344 221.255 311.389C233.96 343.388 259.571 363.31 289.765 364.677C290.896 364.728 292.007 364.754 293.103 364.754C309.022 364.754 320.787 359.618 323.614 358.263C360.128 341.916 387.076 288.136 390.034 282.046C392.313 277.356 391.679 271.769 388.404 267.708ZM312.566 333.7C312.38 333.781 312.165 333.882 311.983 333.969C311.619 334.147 302.948 338.33 290.988 337.77C271.395 336.882 255.104 323.645 246.292 301.45C245.027 298.265 243.251 290.002 242.312 284.761C241.769 277.39 241.771 256.036 259.213 251.795C273.448 248.339 279.894 253.511 293.123 265.548C306.045 277.304 322.698 292.46 352.775 292.789C342.251 308.815 327.478 327.089 312.566 333.7Z" fill="white"/>
<path d="M235.942 187.24C235.767 186.377 235.512 185.528 235.176 184.721C234.839 183.899 234.42 183.118 233.937 182.391C233.439 181.65 232.886 180.963 232.267 180.344C231.634 179.724 230.947 179.159 230.218 178.674C229.477 178.189 228.696 177.772 227.889 177.435C227.082 177.098 226.232 176.842 225.37 176.667C223.633 176.317 221.841 176.317 220.104 176.667C219.242 176.842 218.393 177.098 217.585 177.435C216.765 177.772 215.984 178.189 215.256 178.674C214.515 179.159 213.827 179.725 213.207 180.344C212.587 180.963 212.022 181.651 211.538 182.391C211.053 183.118 210.634 183.899 210.297 184.721C209.96 185.529 209.706 186.376 209.531 187.24C209.356 188.102 209.262 188.991 209.262 189.865C209.262 193.422 210.703 196.882 213.208 199.387C213.828 200.007 214.516 200.572 215.257 201.071C215.982 201.556 216.763 201.96 217.583 202.297C218.392 202.634 219.24 202.903 220.102 203.065C220.965 203.24 221.853 203.333 222.742 203.333C223.617 203.333 224.493 203.24 225.368 203.065C226.23 202.903 227.08 202.634 227.887 202.297C228.694 201.96 229.476 201.556 230.216 201.071C230.943 200.573 231.632 200.007 232.265 199.387C234.77 196.882 236.198 193.42 236.198 189.865C236.197 188.991 236.117 188.101 235.942 187.24Z" fill="white"/>
</g>
<defs>
<clipPath id="clip0_638_91">
<rect width="511.998" height="511.998" fill="white"/>
</clipPath>
</defs>
</svg>
