<svg width="385" height="385" fill="none" xmlns="http://www.w3.org/2000/svg"><path d="M380.6 323.1 249.4 191.4l131.5-130c5.4-5.4 5.4-14.2 0-19.6L343.5 4.2c-2.6-2.6-6.1-4-9.8-4-3.7 0-7.2 1.5-9.8 4L193 133.8 61.9 4.3c-2.6-2.6-6.1-4-9.8-4-3.7 0-7.2 1.5-9.8 4L5 41.9C-.4 47.3-.4 56.1 5 61.5l131.5 130L5.4 323.1c-2.6 2.6-4.1 6.1-4.1 9.8 0 3.7 1.4 7.2 4.1 9.8l37.4 37.6c2.7 2.7 6.2 4.1 9.8 4.1 3.5 0 7.1-1.3 9.8-4.1L193 249.1l130.7 131.1c2.7 2.7 6.2 4.1 9.8 4.1 3.5 0 7.1-1.3 9.8-4.1l37.4-37.6c2.6-2.6 4.1-6.1 4.1-9.8-.1-3.6-1.6-7.1-4.2-9.7Z" fill="#fff"/></svg>